<?xml version="1.0" encoding="UTF-8" standalone="no"?>
<svg
   xmlns:dc="http://purl.org/dc/elements/1.1/"
   xmlns:cc="http://creativecommons.org/ns#"
   xmlns:rdf="http://www.w3.org/1999/02/22-rdf-syntax-ns#"
   xmlns:svg="http://www.w3.org/2000/svg"
   xmlns="http://www.w3.org/2000/svg"
   xml:space="preserve"
   enable-background="new 0 0 737 737.008"
   viewBox="0 0 737 737.008"
   height="737.008px"
   width="737px"
   y="0px"
   x="0px"
   id="Calque_1"
   version="1.1"><metadata
   id="metadata13"><rdf:RDF><cc:Work
       rdf:about=""><dc:format>image/svg+xml</dc:format><dc:type
         rdf:resource="http://purl.org/dc/dcmitype/StillImage" /></cc:Work></rdf:RDF></metadata><defs
   id="defs11" />
<g
   id="g6">
	<path
   id="path2"
   d="M346.789,10.025c115.745-11.016,202.541,59.2,235.61,140.914   c11.113,27.461,18.562,58.874,15.782,100.332c-3.236,48.267-24.723,96.226-41.71,135.278   c-44.981,103.401-95.953,194.545-151.062,290.847c-8.852,15.47-22.881,50.729-37.201,50.729c-12.585,0-23.714-27.021-31.565-40.583   c-60.804-105.036-126.652-219.98-170.225-334.813c-13.328-35.124-28.183-72.912-28.183-116.113   c0-89.564,44.776-150.33,100.332-188.262C267.159,28.831,302.791,14.212,346.789,10.025z M240.821,113.738   c-27.066,27.138-48.375,61.879-51.856,110.477c-5.178,72.285,25.944,118.138,62.002,149.933   c32.815,28.935,81.465,48.801,136.405,43.966c45.53-4.006,81.903-26.56,108.222-52.984c26.567-26.674,48.39-64.335,51.857-109.35   c4.979-64.635-20.502-111.859-52.984-144.297c-32.47-32.426-81.82-56.268-142.041-50.729   C303.567,65.248,267.521,86.966,240.821,113.738z"
   clip-rule="evenodd"
   fill-rule="evenodd" />
	<path
   id="path4"
   d="M426.828,217.452c4.64,7.386,10.841,13.208,11.273,24.8   c8.768-3.334,16.667-10.358,24.801-15.782c6.712-4.475,17.233-15.815,27.056-15.782c20.98,0.071,14.655,43.715,14.655,65.384   c0,24.751,5.112,65.285-13.527,66.512c-7.859,0.517-20.218-11.172-27.057-15.782c-9.535-6.43-16.534-11.778-24.801-16.91   c-3.396,40.805-51.095,32.692-101.458,32.692c-43.479,0-93.735,7.814-98.077-25.928c-2.18-16.946-3.597-69.05,1.127-84.549   c2.197-7.205,7.876-13.061,15.783-16.909c-32.574-29.022-14.057-84.477,27.055-87.931c27.652-2.323,51.996,16.364,54.111,45.093   c-1.499-77.832,106.987-78.148,116.113-14.655C457.924,185.816,443.978,207.115,426.828,217.452z M354.68,168.977   c0.327,26.846,22.849,42.133,42.838,41.71c52.579-1.111,52.686-86.294-2.255-83.421C371,128.535,354.398,145.843,354.68,168.977z    M255.476,174.613c-1.689,32.428,32.753,45.17,54.112,29.31c26.629-19.774,9.93-64.278-24.801-59.748   C267.154,146.476,256.423,156.442,255.476,174.613z M326.497,210.688c9.771,0,19.541,0,29.311,0   c-7.436-9.85-14.376-20.195-16.91-34.947C338.111,190.737,332.222,200.63,326.497,210.688z"
   clip-rule="evenodd"
   fill-rule="evenodd" />
</g>
</svg>